<svg width="512" height="512" viewBox="0 0 512 512" fill="none" xmlns="http://www.w3.org/2000/svg">
<path d="M401.067 256V301.056H332.8V256.478L401.067 256Z" fill="#CED7DD"/>
<path d="M332.8 298.667L170.667 273.067H102.4L80.7254 278.101C65.0557 281.716 51.0738 290.535 41.062 303.12C31.0502 315.704 25.5997 331.311 25.6001 347.392V486.4C25.6001 495.787 33.2801 503.467 42.6668 503.467H51.2001C60.5868 503.467 68.2668 495.787 68.2668 486.4V476.331C68.246 482.757 70.6513 488.955 75.0018 493.685C79.3523 498.415 85.3276 501.33 91.7334 501.845C104.277 502.869 119.04 503.467 136.533 503.467C154.027 503.467 168.789 502.869 181.333 501.845C187.739 501.33 193.715 498.415 198.065 493.685C202.416 488.955 204.821 482.757 204.8 476.331V332.8L266.24 337.152L332.8 298.667Z" fill="#EA4458"/>
<path d="M25.6001 143.189V102.4C25.6001 85.3333 30.5494 71.2533 34.4748 64L76.8001 68.2667V128L25.6001 143.189Z" fill="#A0584E"/>
<path d="M67.0636 84.1984C25.6001 77.3461 25.6001 35.9168 25.6001 35.9168C25.6001 18.9952 31.2662 10.9653 33.3654 8.76369C33.7068 8.40529 34.27 8.48209 34.4748 8.93435C36.2753 12.8768 46.4641 29.0048 94.9334 29.0048C150.4 29.0048 182.741 0.00848344 221.867 59.7418C221.867 59.7418 247.467 59.7418 247.467 102.408V145.075L67.0636 84.1984Z" fill="#B26356"/>
<path d="M170.667 256V274.432C169.984 318.123 103.083 318.123 102.4 274.432V256.427L170.667 256Z" fill="#F2A497"/>
<path d="M247.467 143.198C247.467 157.064 247.467 195.2 219.733 195.2C219.529 201.856 205.867 264.533 136.533 264.533C60.2625 264.533 53.3334 195.2 53.3334 195.2C25.6001 195.2 25.6001 157.064 25.6001 143.198C25.6069 136.763 28.1659 130.594 32.7157 126.045C37.2656 121.495 43.4345 118.936 49.8689 118.929C51.1148 118.929 52.3606 118.997 53.5468 119.279C54.6561 103.467 60.5526 92.1002 67.0636 84.1983C171.204 98.1333 192 77.3375 192 77.3375C192 112 213.982 120.806 213.982 120.806C216.894 119.551 220.035 118.915 223.207 118.938C229.641 118.944 235.81 121.503 240.36 126.053C244.909 130.603 247.469 136.772 247.475 143.206L247.467 143.198Z" fill="#FCAD9D"/>
<path d="M449.195 315.733C458.155 322.895 465.386 331.985 470.35 342.327C475.314 352.668 477.883 363.995 477.867 375.467V468.907C477.867 480.683 470.357 491.008 459.605 494.165C443.904 498.773 415.915 503.467 366.933 503.467C317.952 503.467 289.963 498.773 274.261 494.165C263.509 491.008 256 480.683 256 468.907V375.467C256 355.098 264.091 335.564 278.494 321.161C292.897 306.758 312.431 298.667 332.8 298.667H401.067C426.641 298.667 449.195 315.733 449.195 315.733Z" fill="#E4EAEF"/>
<path d="M443.733 187.733H469.333C473.86 187.733 478.201 185.935 481.401 182.735C484.602 179.534 486.4 175.193 486.4 170.667V128C486.4 123.474 484.602 119.133 481.401 115.932C478.201 112.731 473.86 110.933 469.333 110.933H443.733V187.733ZM290.133 187.733H264.533C260.007 187.733 255.666 185.935 252.466 182.735C249.265 179.534 247.467 175.193 247.467 170.667V128C247.467 123.474 249.265 119.133 252.466 115.932C255.666 112.731 260.007 110.933 264.533 110.933H290.133V187.733Z" fill="#CED7DD"/>
<path d="M281.6 110.933C281.6 63.8037 319.804 25.6 366.933 25.6C414.063 25.6 452.267 63.8037 452.267 110.933V187.733C452.267 187.733 452.267 264.533 366.933 264.533C281.6 264.533 281.6 187.733 281.6 187.733V110.933Z" fill="#E4EAEF"/>
<path d="M332.8 153.6C342.226 153.6 349.867 145.959 349.867 136.533C349.867 127.108 342.226 119.467 332.8 119.467C323.374 119.467 315.733 127.108 315.733 136.533C315.733 145.959 323.374 153.6 332.8 153.6Z" fill="#50D6BF"/>
<path d="M401.067 153.6C410.492 153.6 418.133 145.959 418.133 136.533C418.133 127.108 410.492 119.467 401.067 119.467C391.641 119.467 384 127.108 384 136.533C384 145.959 391.641 153.6 401.067 153.6Z" fill="#50D6BF"/>
<path d="M341.333 187.733H392.533C394.797 187.733 396.967 188.632 398.567 190.233C400.168 191.833 401.067 194.004 401.067 196.267V204.8C401.067 209.326 399.269 213.667 396.068 216.868C392.867 220.069 388.526 221.867 384 221.867H349.867C345.34 221.867 340.999 220.069 337.799 216.868C334.598 213.667 332.8 209.326 332.8 204.8V196.267C332.8 194.004 333.699 191.833 335.299 190.233C336.9 188.632 339.07 187.733 341.333 187.733Z" fill="#122359"/>
<path d="M324.267 349.867H409.6C423.731 349.867 435.2 361.335 435.2 375.467V392.533C435.2 394.797 434.301 396.967 432.701 398.567C431.1 400.168 428.93 401.067 426.667 401.067H307.2C304.937 401.067 302.766 400.168 301.166 398.567C299.566 396.967 298.667 394.797 298.667 392.533V375.467C298.667 361.335 310.136 349.867 324.267 349.867Z" fill="#50D6BF"/>
<path d="M450.646 313.685C445.611 321.109 431.531 332.629 415.744 321.451C401.323 311.125 405.931 293.547 410.88 286.293C415.915 278.869 424.363 285.781 435.371 293.461C446.379 300.885 455.766 306.432 450.646 313.685Z" fill="#FCAD9D"/>
<path d="M85.3335 384V500.48C75.2642 496.981 68.2668 487.424 68.2668 476.331V384C68.2668 379.307 72.1068 375.467 76.8002 375.467C81.4935 375.467 85.3335 379.307 85.3335 384Z" fill="#CC3A52"/>
<path d="M418.134 443.733H358.4C356.137 443.733 353.967 442.834 352.366 441.234C350.766 439.634 349.867 437.463 349.867 435.2C349.867 432.937 350.766 430.766 352.366 429.166C353.967 427.566 356.137 426.667 358.4 426.667H418.134C420.397 426.667 422.567 427.566 424.168 429.166C425.768 430.766 426.667 432.937 426.667 435.2C426.667 437.463 425.768 439.634 424.168 441.234C422.567 442.834 420.397 443.733 418.134 443.733ZM324.267 443.733H315.734C313.47 443.733 311.3 442.834 309.7 441.234C308.099 439.634 307.2 437.463 307.2 435.2C307.2 432.937 308.099 430.766 309.7 429.166C311.3 427.566 313.47 426.667 315.734 426.667H324.267C326.53 426.667 328.701 427.566 330.301 429.166C331.901 430.766 332.8 432.937 332.8 435.2C332.8 437.463 331.901 439.634 330.301 441.234C328.701 442.834 326.53 443.733 324.267 443.733ZM418.134 477.867H358.4C356.137 477.867 353.967 476.968 352.366 475.367C350.766 473.767 349.867 471.597 349.867 469.333C349.867 467.07 350.766 464.9 352.366 463.299C353.967 461.699 356.137 460.8 358.4 460.8H418.134C420.397 460.8 422.567 461.699 424.168 463.299C425.768 464.9 426.667 467.07 426.667 469.333C426.667 471.597 425.768 473.767 424.168 475.367C422.567 476.968 420.397 477.867 418.134 477.867ZM324.267 477.867H315.734C313.47 477.867 311.3 476.968 309.7 475.367C308.099 473.767 307.2 471.597 307.2 469.333C307.2 467.07 308.099 464.9 309.7 463.299C311.3 461.699 313.47 460.8 315.734 460.8H324.267C326.53 460.8 328.701 461.699 330.301 463.299C331.901 464.9 332.8 467.07 332.8 469.333C332.8 471.597 331.901 473.767 330.301 475.367C328.701 476.968 326.53 477.867 324.267 477.867Z" fill="#B3C1C9"/>
<path d="M332.8 32.768V76.8C332.8 81.4933 328.96 85.3333 324.267 85.3333C319.573 85.3333 315.733 81.4933 315.733 76.8V42.752C320.939 38.7413 326.656 35.4133 332.8 32.768ZM418.133 42.752V76.8C418.133 81.4933 414.293 85.3333 409.6 85.3333C404.907 85.3333 401.067 81.4933 401.067 76.8V32.768C407.211 35.4133 412.928 38.7413 418.133 42.752ZM375.467 26.0266V59.7333C375.467 64.4266 371.627 68.2666 366.933 68.2666C362.24 68.2666 358.4 64.4266 358.4 59.7333V26.0266C361.216 25.7706 364.032 25.6 366.933 25.6C369.835 25.6 372.651 25.7706 375.467 26.0266Z" fill="#50D6BF"/>
</svg>
